<svg id="Calque_1" data-name="Calque 1" xmlns="http://www.w3.org/2000/svg" viewBox="0 0 18.22 8.84"><defs><style>.cls-1{fill:#393939;}</style></defs><title>icon_stripe</title><path class="cls-1" d="M11.68,2.79a1,1,0,0,0-.71.27l0,0,0-.23h-.83V7.27h0L11,7.08s0,0,0-.06c0-.32,0-.64,0-.95,0,0,0,0,0-.07l.05,0a1.08,1.08,0,0,0,.62.21,1.11,1.11,0,0,0,.52-.13,1.23,1.23,0,0,0,.6-.65A2.29,2.29,0,0,0,13,4.73a2.76,2.76,0,0,0-.07-.86A1.55,1.55,0,0,0,12.38,3a1.12,1.12,0,0,0-.7-.24ZM11,4.52c0-.23,0-.45,0-.67a.11.11,0,0,1,0-.06.56.56,0,0,1,.39-.17.54.54,0,0,1,.46.26,1,1,0,0,1,.16.44A1.52,1.52,0,0,1,12,5a.79.79,0,0,1-.23.32.51.51,0,0,1-.3.09A.57.57,0,0,1,11,5.24a.11.11,0,0,1,0-.06V4.52Z"/><path class="cls-1" d="M14.62,2.78a1.46,1.46,0,0,0-.49.09,1.31,1.31,0,0,0-.79.74,2.27,2.27,0,0,0-.1,1.56,1.35,1.35,0,0,0,1.09,1,1.72,1.72,0,0,0,.39,0l.28,0A1.86,1.86,0,0,0,15.73,6a.05.05,0,0,0,0-.06V5.24h0a2.05,2.05,0,0,1-.88.19h-.09a.83.83,0,0,1-.43-.13.55.55,0,0,1-.24-.45h1.82s0,0,0,0V4.7a2.39,2.39,0,0,0-.11-1,1.41,1.41,0,0,0-.5-.72,1.27,1.27,0,0,0-.73-.24ZM14.1,4.16a.52.52,0,0,1,.49-.6h.06a.44.44,0,0,1,.36.28.71.71,0,0,1,.07.32Z"/><path class="cls-1" d="M3.59,2.79a1.54,1.54,0,0,0-.43,0,1.1,1.1,0,0,0-.58.31.93.93,0,0,0-.27.65.79.79,0,0,0,.08.43.82.82,0,0,0,.44.42c.16.08.34.14.51.21L3.65,5a.22.22,0,0,1,.09.1.21.21,0,0,1-.17.28.63.63,0,0,1-.19,0l-.19,0a2.47,2.47,0,0,1-.78-.26l-.06,0V6s0,0,0,.06a2.36,2.36,0,0,0,.74.18l.26,0a1.59,1.59,0,0,0,.53-.08,1,1,0,0,0,.79-1,.88.88,0,0,0-.3-.72A1.48,1.48,0,0,0,4,4.22l-.48-.17a.71.71,0,0,1-.18-.12.18.18,0,0,1,.06-.29l.17,0h.07a2,2,0,0,1,.59.1l.33.13V3s0,0,0-.06a2.32,2.32,0,0,0-.58-.13,1.67,1.67,0,0,0-.31,0Z"/><path class="cls-1" d="M5.83,2h0L5,2.21s0,0,0,.07c0,.28,0,.57,0,.86V4.77c0,.21,0,.42,0,.62a1,1,0,0,0,.64.8,1.49,1.49,0,0,0,.36,0h.21a1.4,1.4,0,0,0,.39-.1.05.05,0,0,0,0-.06V5.35H6.49a.86.86,0,0,1-.27,0H6.15a.32.32,0,0,1-.3-.24.59.59,0,0,1,0-.14V3.71s0-.06.06-.06h.66v-.8H5.88s0,0,0-.06V2Z"/><path class="cls-1" d="M8.27,2.81a.59.59,0,0,0-.51.27l0,0c0-.09,0-.16-.05-.23s0,0,0,0H6.86V6.16H7.8V4a.12.12,0,0,1,0-.09.59.59,0,0,1,.42-.19h.27V2.88a0,0,0,0,0,0,0l-.18,0Z"/><path class="cls-1" d="M9.7,2.85H8.76V6.16H9.7V2.85Z"/><path class="cls-1" d="M9.69,1.59h0l-.9.19s0,0,0,0v.74l.94-.2V1.59Z"/></svg>