<svg id="Calque_1" data-name="Calque 1" xmlns="http://www.w3.org/2000/svg" viewBox="0 0 8.79 10.77"><defs><style>.cls-1{fill:#393939;}.cls-2{fill:#727272;}</style></defs><title>icon_html</title><path class="cls-1" d="M1.47,3.2,2,9.31l2.42.81,2.43-.81L7.4,3.2Zm4.76,2H3.39l.06.76H6.17L6,8.23l-1.52.42h0L2.9,8.23,2.81,7.06h.74l.05.59.83.22.83-.22.09-1H2.77l-.2-2.25H6.3Z"/><polygon class="cls-2" points="4.44 3.2 4.44 4.44 6.3 4.44 6.24 5.17 4.44 5.17 4.44 5.94 6.17 5.94 5.96 8.23 4.45 8.65 4.45 8.65 4.44 8.65 4.43 10.12 6.87 9.31 7.41 3.2 4.44 3.2"/><polygon class="cls-2" points="5.36 6.69 4.44 6.69 4.44 7.87 5.26 7.65 5.36 6.69"/><path class="cls-1" d="M6.88,3.68,6.41,9l-2,.66L2.46,9,2,3.68H6.88M7.4,3.2H1.47L2,9.31l2.42.81,2.43-.81L7.4,3.2Z"/><path class="cls-1" d="M2.7,2.7V2.15H2.24V2.7H2V1.39h.29v.52H2.7V1.39H3V2.7Z"/><path class="cls-1" d="M3.81,1.63V2.7H3.52V1.63H3.14V1.39h1v.24Z"/><path class="cls-1" d="M5.61,2.7v-1h0l-.34,1H5l-.34-1h0v1H4.33V1.39h.48l.3.86h0l.31-.86H5.9V2.7Z"/><path class="cls-1" d="M6.18,2.7V1.39h.29V2.45H7L7,2.7Z"/></svg>