<svg id="Calque_1" data-name="Calque 1" xmlns="http://www.w3.org/2000/svg" viewBox="0 0 21.21 9.38"><defs><style>.cls-1{fill:#393939;}</style></defs><title>icon_rails</title><path class="cls-1" d="M12.05,3.85l-.11.09s0,0-.07,0a5.8,5.8,0,0,0-.52-.34,6,6,0,0,0-.61-.32A3.47,3.47,0,0,0,9.86,3a2.85,2.85,0,0,0-1.42.1A2.62,2.62,0,0,0,6.8,4.61a3.93,3.93,0,0,0-.27,1.22,5,5,0,0,0,0,1.1s0,0,0,.06V7h-3l0-.18A6.51,6.51,0,0,1,4,5.48a6.08,6.08,0,0,1,.51-1,5.69,5.69,0,0,1,.62-.84A6.25,6.25,0,0,1,5.78,3a5.3,5.3,0,0,1,.54-.39,3.63,3.63,0,0,1,.81-.41,2.9,2.9,0,0,1,1.16-.17,4.51,4.51,0,0,1,1.61.38A7,7,0,0,1,11,3a7,7,0,0,1,1,.78A.09.09,0,0,0,12.05,3.85Z"/><path class="cls-1" d="M9.82,6.19l.86.85h-1a.09.09,0,0,1-.08,0L9,6.43l0,0V7H8.27S8.21,7,8.21,7V4.35s0,0,0,0H9.65a.82.82,0,0,1,.5.2.82.82,0,0,1,.34.65,1.22,1.22,0,0,1-.07.54.73.73,0,0,1-.55.48ZM8.94,5.3a2.43,2.43,0,0,1,0,.27s0,0,.05,0h.5a.15.15,0,0,0,.13-.06.43.43,0,0,0,0-.47S9.59,5,9.52,5H9s-.05,0-.05,0A2.43,2.43,0,0,1,8.94,5.3Z"/><path class="cls-1" d="M12.33,7a.43.43,0,0,1,0,0V6.62s0-.06-.05-.06-.41,0-.61,0c0,0-.05,0-.05.06V7h-.69c-.05,0-.06,0-.06-.06,0-.65,0-1.29,0-1.94a.7.7,0,0,1,.42-.67.76.76,0,0,1,.26-.06c.27,0,.53,0,.79,0a.71.71,0,0,1,.62.36.68.68,0,0,1,.09.33V7s0,0,0,0h-.68ZM12,5.79h.31s.05,0,.05,0V5.16c0-.11-.05-.18-.15-.18a2.8,2.8,0,0,0-.41,0h0a.15.15,0,0,0-.1.15v.61s0,0,0,0Z"/><path class="cls-1" d="M17.27,7.05h-.62s-.06,0-.06,0a5.8,5.8,0,0,0,0-.59s0-.06.06-.06h1.16c.06,0,.06,0,.06-.06V6.05s0,0-.05,0H17.3a.75.75,0,0,1-.62-.3.6.6,0,0,1-.12-.36,2.54,2.54,0,0,1,0-.39.73.73,0,0,1,.7-.63h1.16s0,0,0,0V5s0,0,0,0H17.29c-.07,0-.07,0-.07.06a1.62,1.62,0,0,1,0,.22s0,0,.05,0h.57a.7.7,0,0,1,.66.39.57.57,0,0,1,.06.25,2.46,2.46,0,0,1,0,.47.71.71,0,0,1-.7.59Z"/><path class="cls-1" d="M14.51,4.32h.76s0,0,0,.07V6.28c0,.07,0,.07.07.07h.92c.05,0,.06,0,.06.06V7s0,0,0,0H14.51Z"/><path class="cls-1" d="M14.18,5.68V7s0,.06-.06.06h-.67s0,0,0,0V4.37s0,0,0,0h.68s0,0,0,0Z"/><path class="cls-1" d="M3.28,5.49c.05-.1.08-.2.12-.29l.06-.14,0,0,.41.15-.19.46Z"/><path class="cls-1" d="M6.73,6.29l.21.07.16.06a.08.08,0,0,1,0,0c0,.15.05.29.08.44v0l-.06,0-.34-.12s-.06,0-.06-.06,0-.26,0-.39S6.73,6.31,6.73,6.29Z"/><path class="cls-1" d="M5.08,3.46l-.24.28h0l-.27-.23.21-.21c.07-.07.07-.07.15,0Z"/><path class="cls-1" d="M7.08,5.53a1.33,1.33,0,0,0-.19-.14.17.17,0,0,1-.08-.24c0-.08.05-.17.08-.27L7,5l.14.11a.11.11,0,0,1,0,0c0,.13,0,.26-.07.39Z"/><path class="cls-1" d="M7.52,4.32l-.16-.24a.06.06,0,0,1,0,0l.22-.24L7.68,4c.06.1.06.1,0,.18Z"/><path class="cls-1" d="M6.07,2.22l.27-.15h0l.15.23-.29.17Z"/><path class="cls-1" d="M9.9,2.29l-.34-.13s0,0,0,0,0-.14,0-.22L9.79,2c.14.05.13.05.13.2S9.91,2.25,9.9,2.29Z"/><path class="cls-1" d="M8.39,3.59,8.3,3.34l.07,0,.23-.08s0,0,.05,0l.06.19s0,0,0,0Z"/><path class="cls-1" d="M9.91,3.4l-.2,0H9.57s0,0,0,0a.86.86,0,0,0,0-.16,0,0,0,0,1,0,0l.31,0,0,0C9.92,3.26,9.91,3.33,9.91,3.4Z"/><path class="cls-1" d="M8.15,1.92H7.9s-.09,0-.12,0,0-.06,0-.1l0-.11H8l0,0Z"/></svg>