<svg id="Calque_1" data-name="Calque 1" xmlns="http://www.w3.org/2000/svg" viewBox="0 0 232.3 43.51"><defs><style>.cls-1{fill:#393939;}.cls-2{fill:#727272;}</style></defs><title>icon_softwares_zenest_buttrfly</title><path class="cls-1" d="M108.5,19.74l-.3.23c-.07.07-.12.07-.2,0-.5-.34-1-.69-1.5-1s-1.17-.64-1.77-.92a10.19,10.19,0,0,0-2.53-.79,8,8,0,0,0-4.08.28,7.49,7.49,0,0,0-4.73,4.36,11,11,0,0,0-.78,3.52,15.19,15.19,0,0,0,.14,3.16l0,.16s0,.1,0,.17H84c0-.19,0-.37.08-.54a19.53,19.53,0,0,1,1.23-4,22.92,22.92,0,0,1,1.46-2.83,17.47,17.47,0,0,1,1.8-2.4,15.65,15.65,0,0,1,1.85-1.79c.49-.4,1-.78,1.55-1.13a11,11,0,0,1,2.34-1.19,8.85,8.85,0,0,1,3.35-.48,13.29,13.29,0,0,1,4.63,1.1,19.48,19.48,0,0,1,3.12,1.67,21.9,21.9,0,0,1,2.9,2.26Z"/><path class="cls-1" d="M102.1,26.45l2.45,2.48h-3a.31.31,0,0,1-.24-.1L99.7,27.16a1.56,1.56,0,0,0-.13-.13v1.9H99.4c-.59,0-1.19,0-1.79,0-.12,0-.17,0-.16-.16v-7.6c0-.13,0-.16.15-.16,1.34,0,2.67,0,4,0a2.39,2.39,0,0,1,1.44.56,2.44,2.44,0,0,1,1,1.89,3.55,3.55,0,0,1-.2,1.55,2.19,2.19,0,0,1-1.6,1.39ZM99.57,23.9v.79c0,.11,0,.14.14.14h1.43a.47.47,0,0,0,.37-.17,1.23,1.23,0,0,0,.11-1.37.49.49,0,0,0-.4-.29H99.69c-.09,0-.13,0-.12.12Z"/><path class="cls-1" d="M109.31,28.92v-.15c0-.35,0-.7,0-1.06,0-.12,0-.17-.16-.17H107.4c-.11,0-.15,0-.15.14v1.24h-.15c-.61,0-1.23,0-1.84,0-.13,0-.17,0-.17-.16,0-1.87,0-3.73,0-5.6a2,2,0,0,1,2-2.09c.75,0,1.51,0,2.26,0a2,2,0,0,1,1.8,1,1.84,1.84,0,0,1,.24.95v5.76c0,.07,0,.1-.1.1h-2Zm-1-3.6h.88c.11,0,.15,0,.15-.15,0-.56,0-1.12,0-1.68a.46.46,0,0,0-.45-.52,11.61,11.61,0,0,0-1.18,0,1,1,0,0,0-.14,0,.43.43,0,0,0-.29.43v1.75c0,.1,0,.13.13.13Z"/><path class="cls-1" d="M123.56,28.94c-.59,0-1.19,0-1.79,0-.11,0-.16,0-.15-.15v-1.7c0-.12,0-.15.15-.15h3.35c.18,0,.18,0,.18-.18v-.68c0-.11,0-.14-.14-.14h-1.51a2.09,2.09,0,0,1-1.78-.89,1.76,1.76,0,0,1-.35-1,10.11,10.11,0,0,1,0-1.1,2.08,2.08,0,0,1,2-1.82h3.35c.09,0,.12,0,.12.12V23c0,.12,0,.13-.14.13h-3.27c-.18,0-.18,0-.18.19v.63c0,.11,0,.14.14.14h1.64a2,2,0,0,1,1.89,1.14,1.83,1.83,0,0,1,.19.72,6.56,6.56,0,0,1,0,1.33,2,2,0,0,1-2,1.7c-.57,0-1.14,0-1.71,0Z"/><path class="cls-1" d="M115.6,21.09h2.2a1.09,1.09,0,0,1,0,.18v5.45c0,.2,0,.2.2.2h2.68c.13,0,.17,0,.17.17q0,.86,0,1.71c0,.1,0,.14-.14.14H115.6Z"/><path class="cls-1" d="M114.64,25c0,1.26,0,2.51,0,3.76,0,.14,0,.18-.18.18-.64,0-1.27,0-1.91,0-.12,0-.16,0-.16-.15V21.23c0-.12,0-.15.15-.15h2c.12,0,.15,0,.15.15C114.64,22.48,114.64,23.74,114.64,25Z"/><path class="cls-1" d="M83.26,24.44c.11-.29.22-.56.33-.83s.11-.26.18-.39.08-.07.1-.06l1.2.43-.56,1.32Z"/><path class="cls-1" d="M93.17,26.74l.61.21.47.18s.1.07.1.11c.09.43.16.85.24,1.27a.15.15,0,0,1,0,.06l-.16-.05-1-.35a.19.19,0,0,1-.16-.19c0-.37-.07-.74-.1-1.11Z"/><path class="cls-1" d="M88.42,18.61l-.68.79a.11.11,0,0,1-.12,0l-.78-.67.6-.61c.22-.21.22-.21.45,0Z"/><path class="cls-1" d="M94.2,24.58a4.22,4.22,0,0,0-.55-.42.49.49,0,0,1-.23-.68c.09-.25.15-.51.23-.79l.31.23c.13.1.27.21.39.32a.17.17,0,0,1,.07.14c-.06.38-.13.75-.2,1.13A.41.41,0,0,1,94.2,24.58Z"/><path class="cls-1" d="M95.46,21.09,95,20.38a.11.11,0,0,1,0-.11l.62-.7c.12.18.23.33.32.48s.18.27,0,.52Z"/><path class="cls-1" d="M91.29,15l.78-.42a.11.11,0,0,1,.12,0c.15.22.3.44.44.67l-.83.48Z"/><path class="cls-1" d="M102.33,15.23l-1-.37s-.07-.06-.06-.09c0-.2,0-.41,0-.64a7,7,0,0,1,.69.22c.38.15.38.16.35.57A1.8,1.8,0,0,1,102.33,15.23Z"/><path class="cls-1" d="M98,19l-.24-.72a1.11,1.11,0,0,1,.19-.09l.66-.24c.07,0,.12,0,.14.07s.13.36.18.55c0,0,0,.08,0,.09Z"/><path class="cls-1" d="M102.34,18.43l-.57-.09-.41,0c-.07,0-.1,0-.1-.1a3.87,3.87,0,0,0,0-.48c0-.08,0-.11.12-.1.29,0,.59.07.88.12,0,0,.09.05.09.08C102.37,18,102.35,18.22,102.34,18.43Z"/><path class="cls-1" d="M97.28,14.15h-.73c-.11,0-.25,0-.33,0s-.08-.19-.12-.3-.06-.19-.09-.3l.24,0,.7,0s.11,0,.12.06C97.14,13.72,97.2,13.91,97.28,14.15Z"/><path class="cls-1" d="M170,18.78a2.86,2.86,0,0,0-1.91.73l-.09.06-.13-.61h-2.24v11.9h.07l2.35-.5c.1,0,.13-.06.13-.16,0-.86,0-1.72,0-2.58a1.62,1.62,0,0,1,0-.18l.13.1a3,3,0,0,0,1.68.55,3.17,3.17,0,0,0,1.4-.34A3.29,3.29,0,0,0,173.05,26a5.55,5.55,0,0,0,.45-2,6.72,6.72,0,0,0-.18-2.32,4.09,4.09,0,0,0-1.4-2.25,3,3,0,0,0-1.88-.66Zm-1.83,4.66c0-.6,0-1.2,0-1.8a.23.23,0,0,1,.06-.16,1.47,1.47,0,0,1,2.3.24,2.81,2.81,0,0,1,.41,1.2,3.64,3.64,0,0,1-.19,1.79,1.85,1.85,0,0,1-.6.86,1.24,1.24,0,0,1-.81.27,1.57,1.57,0,0,1-1.11-.44.35.35,0,0,1-.05-.18c0-.3,0-.6,0-.9v-.88Z"/><path class="cls-1" d="M178,18.77a4.4,4.4,0,0,0-1.32.22,3.54,3.54,0,0,0-2.13,2,6,6,0,0,0-.28,4.19A3.65,3.65,0,0,0,177.18,28a5.36,5.36,0,0,0,1.06.1,6.28,6.28,0,0,0,.75,0,5.43,5.43,0,0,0,2-.56.16.16,0,0,0,.11-.17c0-.34,0-.69,0-1V25.4H181a5.37,5.37,0,0,1-2.38.53h-.23a2,2,0,0,1-1.17-.34,1.55,1.55,0,0,1-.64-1.21h4.89c.09,0,.12,0,.12-.13s0-.21,0-.32a6.89,6.89,0,0,0-.31-2.59,3.74,3.74,0,0,0-1.35-1.94,3.38,3.38,0,0,0-2-.63Zm-1.41,3.72a1.42,1.42,0,0,1,1.32-1.63H178a1.2,1.2,0,0,1,1,.74,2.38,2.38,0,0,1,.17.88Z"/><path class="cls-1" d="M148.22,18.78a5.18,5.18,0,0,0-1.17.13,3,3,0,0,0-1.56.84,2.62,2.62,0,0,0-.73,1.76,2.37,2.37,0,0,0,.21,1.17,2.34,2.34,0,0,0,1.19,1.13c.45.21.93.37,1.39.57a9.12,9.12,0,0,1,.83.41.66.66,0,0,1,.23.29.56.56,0,0,1-.44.75,1.78,1.78,0,0,1-.51.06,3,3,0,0,1-.52,0,6.88,6.88,0,0,1-2.11-.69l-.15-.07c0,.05,0,.08,0,.11v2.2c0,.09,0,.12.11.15a7.18,7.18,0,0,0,2,.5c.23,0,.47,0,.7,0a5.11,5.11,0,0,0,1.45-.19,2.7,2.7,0,0,0,2.12-2.64,2.35,2.35,0,0,0-.82-1.94,3.81,3.81,0,0,0-1.18-.66L148,22.17a1.61,1.61,0,0,1-.48-.3.47.47,0,0,1,.16-.78,1.52,1.52,0,0,1,.47-.1h.16a5,5,0,0,1,1.59.28c.3.1.59.23.9.35V21.5c0-.71,0-1.42,0-2.13a.15.15,0,0,0-.12-.17,6.16,6.16,0,0,0-1.58-.37,7.7,7.7,0,0,0-.83,0Z"/><path class="cls-1" d="M154.26,16.74l-.12,0-2.23.47c-.11,0-.14.07-.14.18,0,.77,0,1.54,0,2.32v4.39c0,.56,0,1.13,0,1.68a2.47,2.47,0,0,0,1.72,2.14,2.92,2.92,0,0,0,1,.14l.55,0a3.28,3.28,0,0,0,1.06-.25.16.16,0,0,0,.11-.17V25.81a.49.49,0,0,0,0-.12l-.14,0a2.67,2.67,0,0,1-.75.11h-.17a.89.89,0,0,1-.82-.65,1.67,1.67,0,0,1-.05-.39V21.27c0-.13,0-.16.15-.16h1.78V19H154.4c-.12,0-.15,0-.14-.16V16.74Z"/><path class="cls-1" d="M160.84,18.85a1.54,1.54,0,0,0-1.37.73l-.09.12c0-.23-.09-.42-.13-.62s-.05-.13-.15-.13H157v8.93h2.54v-.18c0-1.91,0-3.83,0-5.75a.33.33,0,0,1,.1-.24,1.58,1.58,0,0,1,1.11-.51h.09c.21,0,.43,0,.64,0h0V19s0-.09-.08-.09a2.67,2.67,0,0,0-.48-.08Z"/><path class="cls-1" d="M164.69,19h-2.53v8.93h2.53V19Z"/><path class="cls-1" d="M164.67,15.55h0l-2.43.51c-.06,0-.08.05-.08.11v2l2.54-.54V15.56Z"/><path class="cls-1" d="M199.05,10.24V32.17H221V10.24ZM211,27.35a2.8,2.8,0,0,1-3.08,3.1,3.21,3.21,0,0,1-3.1-1.88l1.68-1c.33.57.62,1.05,1.33,1.05s1.11-.26,1.11-1.29v-7H211v7Zm4.87,3.1a4,4,0,0,1-3.75-2.1l1.68-1a2.24,2.24,0,0,0,2,1.25c.85,0,1.4-.42,1.4-1s-.56-.95-1.5-1.37L215.2,26c-1.49-.63-2.47-1.43-2.47-3.1a2.76,2.76,0,0,1,3-2.73,3,3,0,0,1,2.93,1.65l-1.6,1a1.42,1.42,0,0,0-1.33-.88.89.89,0,0,0-1,.88c0,.62.38.87,1.26,1.25l.52.22c1.75.75,2.73,1.52,2.73,3.25s-1.45,2.86-3.41,2.86Z"/><path class="cls-1" d="M10.91,12.68l1.7,19.21,7.6,2.54,7.65-2.54,1.69-19.21Zm15,6.21H17l.2,2.4h8.52L25,28.49,20.26,29.8h-.05l-4.79-1.32-.29-3.68h2.31l.17,1.85,2.6.7,2.61-.7.29-3H15l-.62-7.07h11.7Z"/><polygon class="cls-2" points="20.26 12.68 20.25 16.57 26.11 16.57 25.9 18.89 20.25 18.89 20.25 21.29 25.7 21.29 25.04 28.49 20.29 29.8 20.29 29.82 20.24 29.82 20.23 34.43 27.88 31.89 29.58 12.68 20.26 12.68"/><polygon class="cls-2" points="23.13 23.64 20.25 23.64 20.24 27.36 22.84 26.66 23.13 23.64"/><path class="cls-1" d="M27.92,14.18l-1.47,16.6-6.24,2.07L14,30.78l-1.46-16.6H27.92m1.63-1.5H10.92l1.69,19.21,7.6,2.54,7.65-2.54,1.69-19.21Z"/><path class="cls-1" d="M14.77,11.1V9.39H13.35V11.1h-.93V7h.93V8.62h1.42V7h.93V11.1Z"/><path class="cls-1" d="M18.27,7.73V11.1h-.92V7.73H16.18V7h3.25v.74Z"/><path class="cls-1" d="M23.92,11.1v-3h0l-1.07,3h-1l-1.07-3h0v3h-.84V7H21.4l1,2.72h0l1-2.72h1.49V11.1Z"/><path class="cls-1" d="M25.71,11.1V7h.93v3.35h1.69l.1.76Z"/><path class="cls-1" d="M47.05,12.71l1.69,19.21,7.63,2.54L64,31.92l1.7-19.21Zm15.2,3.88L62,18.89l-5.59,2.39h5.39l-.62,7.11-4.76,1.4-4.8-1.42-.31-3.59h2.37l.16,1.86,2.55.65,2.66-.75.18-3-8.08,0h0L51,21.29,56.42,19l.32-.13h-6l-.28-2.3Z"/><polygon class="cls-2" points="56.37 12.71 56.37 16.59 62.24 16.59 62.01 18.89 56.42 21.28 56.4 21.29 61.81 21.29 61.19 28.4 56.43 29.8 56.37 29.78 56.37 34.45 63.99 31.92 65.69 12.71 56.37 12.71"/><polygon class="cls-2" points="59.06 26.55 59.24 23.56 56.37 23.55 56.37 27.29 56.4 27.3 59.06 26.55"/><polygon class="cls-2" points="56.74 18.89 56.37 18.89 56.37 19.04 56.42 19.02 56.74 18.89"/><path class="cls-1" d="M64.05,14.21l-1.46,16.6-6.25,2.06-6.19-2.06-1.46-16.6H64.05m1.64-1.5H47.05l1.69,19.21,7.6,2.54L64,31.92l1.7-19.21Z"/><path class="cls-1" d="M52,10.21a.85.85,0,0,0,.62.25.79.79,0,0,0,.63-.24,1.07,1.07,0,0,0,.2-.71h.85a1.83,1.83,0,0,1-.21.91,1.43,1.43,0,0,1-.59.58,1.79,1.79,0,0,1-.84.19H52.6a2,2,0,0,1-.93-.21,1.53,1.53,0,0,1-.64-.62,2,2,0,0,1-.23-1V8.78a2.06,2.06,0,0,1,.23-1,1.68,1.68,0,0,1,.64-.63,1.93,1.93,0,0,1,.9-.21h.09a1.8,1.8,0,0,1,.85.19,1.3,1.3,0,0,1,.59.57,1.78,1.78,0,0,1,.22.93h-.88a1.06,1.06,0,0,0-.21-.71.75.75,0,0,0-.6-.24A.81.81,0,0,0,52,8a1,1,0,0,0-.24.7V9.5A1,1,0,0,0,52,10.21Z"/><path class="cls-1" d="M57.22,8.18A.43.43,0,0,0,57,7.82a.9.9,0,0,0-.5-.12,1,1,0,0,0-.51.1.31.31,0,0,0-.19.28.32.32,0,0,0,.12.25.73.73,0,0,0,.29.16l.48.13a6.28,6.28,0,0,1,.74.22,1.28,1.28,0,0,1,.5.36.93.93,0,0,1,.21.64,1.17,1.17,0,0,1-.46,1,2.05,2.05,0,0,1-1.24.32,2.09,2.09,0,0,1-1.19-.31,1.06,1.06,0,0,1-.47-1V9.79h.88v.1a.5.5,0,0,0,.2.41.85.85,0,0,0,.56.16,1,1,0,0,0,.6-.14.4.4,0,0,0,.19-.33.32.32,0,0,0-.12-.26.82.82,0,0,0-.28-.15,4.89,4.89,0,0,0-.48-.13,6.07,6.07,0,0,1-.74-.23,1.28,1.28,0,0,1-.5-.37,1,1,0,0,1-.21-.67,1.11,1.11,0,0,1,.22-.68,1.3,1.3,0,0,1,.58-.41A2.3,2.3,0,0,1,56.52,7a2,2,0,0,1,1.13.3,1,1,0,0,1,.44.9v.08h-.87Z"/><path class="cls-1" d="M61,8.18a.43.43,0,0,0-.18-.36.9.9,0,0,0-.5-.12,1,1,0,0,0-.51.1.31.31,0,0,0-.19.28.32.32,0,0,0,.12.25.73.73,0,0,0,.29.16l.48.13a6.28,6.28,0,0,1,.74.22,1.28,1.28,0,0,1,.5.36.93.93,0,0,1,.21.64,1.17,1.17,0,0,1-.46,1,2.05,2.05,0,0,1-1.24.32,2.09,2.09,0,0,1-1.19-.31,1.06,1.06,0,0,1-.47-1V9.79h.88v.1a.5.5,0,0,0,.2.41.85.85,0,0,0,.56.16,1,1,0,0,0,.6-.14.4.4,0,0,0,.19-.33.32.32,0,0,0-.12-.26.82.82,0,0,0-.28-.15l-.47-.13a5.77,5.77,0,0,1-.75-.23,1.28,1.28,0,0,1-.5-.37,1,1,0,0,1-.21-.67,1.11,1.11,0,0,1,.22-.68,1.3,1.3,0,0,1,.58-.41A2.3,2.3,0,0,1,60.33,7a2,2,0,0,1,1.13.3,1,1,0,0,1,.44.9v.08H61Z"/></svg>