<svg id="Calque_1" data-name="Calque 1" xmlns="http://www.w3.org/2000/svg" viewBox="0 0 10.77 10.77"><defs><style>.cls-1{fill:#393939;}</style></defs><title>icon_js</title><path class="cls-1" d="M1.77,1.88V9.63H9.52V1.88ZM6,7.92A1,1,0,0,1,4.9,9a1.14,1.14,0,0,1-1.1-.66L4.4,8c.11.2.22.37.47.37s.39-.09.39-.46V5.44H6V7.92ZM7.71,9a1.41,1.41,0,0,1-1.33-.74L7,7.94a.79.79,0,0,0,.71.44c.3,0,.5-.15.5-.36s-.2-.34-.53-.49l-.18-.07C7,7.23,6.6,7,6.6,6.36a1,1,0,0,1,1.07-1A1.07,1.07,0,0,1,8.7,6l-.56.36A.5.5,0,0,0,7.67,6a.32.32,0,0,0-.35.31c0,.22.13.31.45.44L8,6.86c.62.27,1,.54,1,1.15S8.4,9,7.71,9Z"/></svg>