<svg id="Calque_1" data-name="Calque 1" xmlns="http://www.w3.org/2000/svg" viewBox="0 0 9.8 10.77"><defs><style>.cls-1{fill:#393939;}.cls-2{fill:#727272;}</style></defs><title>icon_css</title><path class="cls-1" d="M1.81,3.21l.54,6.11,2.43.81,2.43-.81.53-6.11ZM6.65,4.45l-.08.73-1.78.76H6.51L6.31,8.2,4.8,8.65,3.27,8.19l-.1-1.14h.76l0,.59.81.21.84-.24.06-1H3.12l-.06-.71L4.8,5.22l.1,0H3l-.09-.73Z"/><polygon class="cls-2" points="4.78 3.21 4.78 4.45 6.65 4.45 6.58 5.17 4.79 5.94 4.79 5.94 6.51 5.94 6.31 8.2 4.8 8.64 4.78 8.64 4.78 10.13 7.21 9.32 7.74 3.21 4.78 3.21"/><polygon class="cls-2" points="5.63 7.61 5.69 6.66 4.78 6.66 4.78 7.85 4.79 7.85 5.63 7.61"/><polygon class="cls-2" points="4.9 5.17 4.78 5.17 4.78 5.22 4.8 5.22 4.9 5.17"/><path class="cls-1" d="M7.22,3.69,6.76,9l-2,.66L2.8,9,2.34,3.69H7.22m.52-.48H1.81l.54,6.11,2.42.81,2.44-.81.53-6.11Z"/><path class="cls-1" d="M3.39,2.41a.26.26,0,0,0,.2.08.24.24,0,0,0,.2-.07.32.32,0,0,0,.07-.23h.27a.65.65,0,0,1-.07.29.47.47,0,0,1-.19.18.46.46,0,0,1-.26.07h0a.65.65,0,0,1-.29-.07.45.45,0,0,1-.21-.2A.59.59,0,0,1,3,2.15V2a.62.62,0,0,1,.07-.31.48.48,0,0,1,.2-.2.59.59,0,0,1,.29-.07h0a.6.6,0,0,1,.27.06.47.47,0,0,1,.19.18.66.66,0,0,1,.07.3H3.85a.37.37,0,0,0-.07-.23.24.24,0,0,0-.19-.08.28.28,0,0,0-.2.08.33.33,0,0,0-.07.23v.27A.29.29,0,0,0,3.39,2.41Z"/><path class="cls-1" d="M5.05,1.77A.14.14,0,0,0,5,1.65a.34.34,0,0,0-.16,0,.25.25,0,0,0-.16,0,.1.1,0,0,0-.06.09.1.1,0,0,0,0,.08l.09.05.15,0A1,1,0,0,1,5.13,2a.36.36,0,0,1,.16.11.33.33,0,0,1,.06.21.36.36,0,0,1-.14.32.68.68,0,0,1-.4.11.7.7,0,0,1-.37-.1.35.35,0,0,1-.15-.31v0h.28v0a.16.16,0,0,0,.07.13.23.23,0,0,0,.17.05.35.35,0,0,0,.2,0,.12.12,0,0,0,0-.11.11.11,0,0,0,0-.08.19.19,0,0,0-.09,0l-.15,0L4.54,2.1A.45.45,0,0,1,4.38,2a.33.33,0,0,1-.06-.21.32.32,0,0,1,.07-.22.35.35,0,0,1,.18-.13.71.71,0,0,1,.26,0,.61.61,0,0,1,.36.1.32.32,0,0,1,.14.28v0H5.05Z"/><path class="cls-1" d="M6.26,1.77a.14.14,0,0,0-.06-.12.3.3,0,0,0-.15,0,.29.29,0,0,0-.17,0,.1.1,0,0,0-.06.09s0,.05,0,.08L6,1.87l.16,0A1,1,0,0,1,6.34,2a.36.36,0,0,1,.16.11.28.28,0,0,1,.07.21.37.37,0,0,1-.15.32A.65.65,0,0,1,6,2.73a.71.71,0,0,1-.38-.1.35.35,0,0,1-.15-.31v0h.28v0a.15.15,0,0,0,.06.13A.24.24,0,0,0,6,2.49a.32.32,0,0,0,.19,0,.13.13,0,0,0,.06-.11.09.09,0,0,0,0-.08.19.19,0,0,0-.09,0L6,2.17,5.75,2.1A.35.35,0,0,1,5.6,2a.28.28,0,0,1-.07-.21.32.32,0,0,1,.07-.22.35.35,0,0,1,.18-.13.71.71,0,0,1,.26,0,.57.57,0,0,1,.36.1.32.32,0,0,1,.14.28v0H6.26Z"/></svg>