<?xml version="1.0" encoding="utf-8"?>
<!-- Generator: Adobe Illustrator 23.0.4, SVG Export Plug-In . SVG Version: 6.00 Build 0)  -->
<svg version="1.1" id="Calque_1" xmlns="http://www.w3.org/2000/svg" xmlns:xlink="http://www.w3.org/1999/xlink" x="0px" y="0px"
	 viewBox="0 0 77 70" style="enable-background:new 0 0 77 70;" xml:space="preserve">
<style type="text/css">
	.st0{fill:#03E0CA;}
</style>
<title>logo_mvh</title>
<path class="st0" d="M38.2,53.5c-3.4-3.4-6.2-6.5-8.7-9.2h-4c2.9,3.4,6.5,7.3,10.9,11.7l1.7,1.8l1.6-1.6c4.5-4.5,8.2-8.4,11-11.9h-4
	C44.4,47.2,41.5,50.2,38.2,53.5z"/>
<path class="st0" d="M22.8,17.3c1.5-1,3.3-1.5,5.1-1.6c0.9,0,1.8,0.1,2.6,0.3c2.7,0.8,4.9,2.9,6,5.6l0.4,0.9h2.9l0.4-0.9
	c1-2.7,3.2-4.7,6-5.6c4.8-1.4,9.8,1.3,11.2,6.1c0.3,1.1,0.4,2.2,0.3,3.3h3c0.4-6.6-4.6-12.3-11.2-12.7c-1.4-0.1-2.8,0.1-4.2,0.5
	c-2.9,0.8-5.4,2.7-7,5.3c-3.5-5.7-10.9-7.5-16.6-4c-0.2,0.1-0.4,0.2-0.5,0.3c-3.5,2.5-5.2,6.2-5.2,10.6h3
	C18.6,22.2,20.1,19.1,22.8,17.3z"/>
<path class="st0" d="M57.1,28.4c-0.2,0.8-0.4,1.7-0.7,2.5c-0.2,0.6-0.5,1.2-0.8,1.7H20.8c-0.3-0.7-0.6-1.2-0.8-1.7
	c-0.3-0.8-0.5-1.6-0.7-2.5h-3.1c0.3,1.2,0.6,2.4,1,3.5c1.5,3.4,3.5,6.6,5.9,9.4h3.9c-1.7-2.1-3.2-4-4.3-5.7h31.2
	c-1.3,2-2.8,3.9-4.3,5.7h3.9c2.9-3.8,4.9-6.9,5.9-9.4c0.5-1.1,0.8-2.3,1-3.5L57.1,28.4z"/>
</svg>
