<svg id="Calque_1" data-name="Calque 1" xmlns="http://www.w3.org/2000/svg" xmlns:xlink="http://www.w3.org/1999/xlink" viewBox="0 0 300 250"><defs><style>.cls-1,.cls-10,.cls-12,.cls-14,.cls-15,.cls-16,.cls-17,.cls-18,.cls-19,.cls-21,.cls-22,.cls-23,.cls-24,.cls-25,.cls-26{fill:none;}.cls-2{fill:#faf8f8;}.cls-3{clip-path:url(#clip-path);}.cls-11,.cls-4,.cls-7{fill:#86f1e6;}.cls-11,.cls-13,.cls-20,.cls-4,.cls-6,.cls-9{fill-rule:evenodd;}.cls-5,.cls-9{fill:#b1f8f0;}.cls-5{stroke:#dcfdfa;stroke-width:0.6px;}.cls-6,.cls-8{fill:#dcfdfa;}.cls-10,.cls-12,.cls-14,.cls-15,.cls-18,.cls-19,.cls-21,.cls-23,.cls-25{stroke:#86f1e6;}.cls-10{stroke-width:0.79px;}.cls-11{opacity:0.65;}.cls-11,.cls-12,.cls-19,.cls-21,.cls-24,.cls-25,.cls-26{isolation:isolate;}.cls-12{stroke-width:1.01px;opacity:0.2;}.cls-13{fill:#cf3e83;}.cls-14,.cls-15,.cls-22{stroke-width:0.64px;}.cls-15{stroke-miterlimit:10;}.cls-16,.cls-17{stroke:#b1f8f0;stroke-width:3.32px;}.cls-17{stroke-linejoin:round;}.cls-18{stroke-width:1.16px;}.cls-19{stroke-width:0.93px;}.cls-19,.cls-26{opacity:0.2;}.cls-20{fill:#c83820;}.cls-21{stroke-width:0.6px;}.cls-21,.cls-25{opacity:0.15;}.cls-22,.cls-24,.cls-26{stroke:#cff7f2;}.cls-23{stroke-width:0.73px;}.cls-24,.cls-25,.cls-26{stroke-width:0.64px;}.cls-24{opacity:0.2;}</style><clipPath id="clip-path"><rect class="cls-1" x="18.5" y="15" width="263" height="220"/></clipPath></defs><title>scene_teaching_responsive</title><rect class="cls-2" x="18.5" y="15" width="263.38" height="220"/><g class="cls-3"><path class="cls-4" d="M258.76,47.16h-77.2v65.46H258.7V47.16Z"/><path class="cls-5" d="M264.12,47.16H181.56v65.46h82.5V47.16Z"/><path class="cls-6" d="M256.85,51.8H184.6v56h72.25v-56Z"/><path class="cls-7" d="M188.29,72.18v-.24l2-1.25.23.41-1.6,1,1.6,1-.23.42Z"/><path class="cls-7" d="M190.73,70.45h.9v1.13h0a.57.57,0,0,1,.29-.24.89.89,0,0,1,.42-.06.45.45,0,0,1,.3.06.31.31,0,0,1,.24.12,1.31,1.31,0,0,1,.18.3.89.89,0,0,1,.06.42v1.37h-.6V72.23a.5.5,0,0,0-.12-.35.46.46,0,0,0-.3-.12c-.12,0-.18.06-.3.12s-.17.12-.17.24v1.37H191V70.92h-.3Z"/><path class="cls-7" d="M193.83,73h.66V71.1l-.6.42-.24-.36,1-.71H195V73h.66v.48h-1.85Z"/><path class="cls-7" d="M196.39,73.37l-.24-.42,1.61-1-1.61-1,.24-.41,2,1.25v.24Z"/><path class="cls-7" d="M200.38,72.18h-1v1.25h-.6v-3h.6v1.19h1V70.45h.6v3h-.6Z"/><path class="cls-7" d="M203.54,73.25l-.12.12c-.06.06-.12.06-.24.12s-.18.06-.24.06h-.29a1.17,1.17,0,0,1-.48-.06c-.12-.06-.3-.12-.36-.24a1.26,1.26,0,0,1-.24-.36,1.17,1.17,0,0,1-.06-.48,1.08,1.08,0,0,1,.12-.47,1.1,1.1,0,0,1,.6-.6,1.17,1.17,0,0,1,.48-.06.74.74,0,0,1,.35.06c.12.06.24.06.3.18a.6.6,0,0,1,.24.3,1.12,1.12,0,0,1,.12.47,1.17,1.17,0,0,1-.06.42h-1.55c0,.12,0,.18.06.24s.06.12.12.18a.22.22,0,0,0,.18.06h.24a.87.87,0,0,0,.41-.06c.12-.06.18-.12.3-.12Zm-.95-1.55a.45.45,0,0,0-.24.06c-.06,0-.12.06-.18.12l-.12.12a.6.6,0,0,0-.06.18h1.07a.85.85,0,0,0-.12-.36C202.88,71.7,202.77,71.7,202.59,71.7Z"/><path class="cls-7" d="M204.19,70.45h1v2a1,1,0,0,0,.06.48.31.31,0,0,0,.24.12h.23c.06,0,.12-.06.18-.06l.24.42a.19.19,0,0,1-.12.06.6.6,0,0,1-.18.06c-.06,0-.12,0-.18,0h-.23c-.3,0-.48,0-.6-.23a.9.9,0,0,1-.18-.6V70.92h-.42Z"/><path class="cls-7" d="M206.82,70.45h1v2a1,1,0,0,0,.06.48.31.31,0,0,0,.24.12h.24c.05,0,.11-.06.17-.06l.24.42a.19.19,0,0,1-.12.06c-.06,0-.12.06-.18.06s-.11,0-.17,0H208c-.3,0-.48,0-.6-.23a.9.9,0,0,1-.18-.6V70.92h-.35v-.47Z"/><path class="cls-7" d="M209.2,72.35a1.14,1.14,0,0,1,.06-.47,1.26,1.26,0,0,1,.24-.36,1.22,1.22,0,0,1,.35-.24,1.95,1.95,0,0,1,1,0,1.1,1.1,0,0,1,.35.24,1.26,1.26,0,0,1,.24.36,1.14,1.14,0,0,1,.06.47,1.17,1.17,0,0,1-.06.48,1.26,1.26,0,0,1-.24.36,1.1,1.1,0,0,1-.35.24,1.95,1.95,0,0,1-1,0,1.22,1.22,0,0,1-.35-.24,1.26,1.26,0,0,1-.24-.36A1.17,1.17,0,0,1,209.2,72.35Zm.53,0c0,.12,0,.18.06.24a.45.45,0,0,0,.12.24c.06.06.12.12.18.12s.12.06.24.06a.54.54,0,0,0,.42-.18.73.73,0,0,0,.18-.54,1.12,1.12,0,0,0-.12-.47.54.54,0,0,0-.42-.18.36.36,0,0,0-.24.06c-.06.06-.12.06-.18.12a.31.31,0,0,0-.12.24C209.79,72.18,209.73,72.23,209.73,72.35Z"/><path class="cls-7" d="M215,72.12v.35h0l.06-.35.23-.84h.42l.24.84.06.35h0v-.35l.12-1.67h.53l-.29,3h-.48l-.3-1-.12-.41h0l-.12.41-.35,1h-.54l-.3-3h.6Z"/><path class="cls-7" d="M217,72.35a1.14,1.14,0,0,1,.06-.47,1.1,1.1,0,0,1,.6-.6,1.14,1.14,0,0,1,.47-.06,1.17,1.17,0,0,1,.48.06,1.1,1.1,0,0,1,.6.6,1.14,1.14,0,0,1,.06.47,1.17,1.17,0,0,1-.06.48,1.1,1.1,0,0,1-.6.6,1.17,1.17,0,0,1-.48.06,1.14,1.14,0,0,1-.47-.06,1.1,1.1,0,0,1-.6-.6A1.17,1.17,0,0,1,217,72.35Zm.6,0c0,.12,0,.18.06.24s.06.18.12.24.12.12.18.12.17.06.23.06a.54.54,0,0,0,.42-.18.73.73,0,0,0,.18-.54,1.12,1.12,0,0,0-.12-.47.54.54,0,0,0-.42-.18.36.36,0,0,0-.24.06s-.11.06-.17.12a4.08,4.08,0,0,0-.24.53Z"/><path class="cls-7" d="M219.62,73h.54V71.82h-.54v-.48h1l.06.3h0a.57.57,0,0,1,.29-.24.85.85,0,0,1,.36-.12.54.54,0,0,1,.42.18,1,1,0,0,1,.18.66h-.54c0-.12,0-.18-.06-.24s-.06-.06-.12-.06a.45.45,0,0,0-.3.06l-.17.18v1h1v.48h-2V73Z"/><path class="cls-7" d="M222.48,70.45h1v2a1,1,0,0,0,.06.48.28.28,0,0,0,.23.12H224c.06,0,.12-.06.18-.06l.24.42a.19.19,0,0,1-.12.06c-.06,0-.12.06-.18.06s-.12,0-.18,0h-.24c-.29,0-.47,0-.59-.23a.9.9,0,0,1-.18-.6V70.92h-.36v-.47Z"/><path class="cls-7" d="M226,70.45h.89v1.9A2.46,2.46,0,0,0,227,73v.06h.3v.48h-.72l-.06-.3h0a.13.13,0,0,1-.12.12c-.06.06-.11.06-.17.12a.22.22,0,0,1-.18.06h-.24a.76.76,0,0,1-.36-.06,1.31,1.31,0,0,1-.3-.18.68.68,0,0,1-.23-.36,1.32,1.32,0,0,1-.06-.48,1.12,1.12,0,0,1,.06-.47,1,1,0,0,1,.23-.36,1.26,1.26,0,0,1,.36-.24,1.17,1.17,0,0,1,.48-.06h.24a.2.2,0,0,1,.17.06V71H226Zm-.12,2.62a.54.54,0,0,0,.3-.06.83.83,0,0,0,.17-.24v-.89a.2.2,0,0,0-.17-.06h-.24a.36.36,0,0,0-.24.06c-.06.06-.12.06-.18.12a.31.31,0,0,0-.12.23.65.65,0,0,0-.06.36,1.13,1.13,0,0,0,.12.48C225.58,73,225.7,73.07,225.88,73.07Z"/><path class="cls-7" d="M227.43,72.18v-.24l2-1.25.24.41-1.61,1,1.61,1-.24.42Z"/><path class="cls-7" d="M231.78,70.39l.41.18-1.55,3.51-.41-.18Z"/><path class="cls-7" d="M232.49,70.45h.89v1.13h0a.6.6,0,0,1,.3-.24.89.89,0,0,1,.42-.06.45.45,0,0,1,.3.06c.06.06.17.06.23.12a1.31,1.31,0,0,1,.18.3.89.89,0,0,1,.06.42v1.37h-.53V72.23a.5.5,0,0,0-.12-.35.46.46,0,0,0-.3-.12c-.12,0-.18.06-.3.12s-.18.12-.18.24v1.37h-.53V70.92h-.3v-.47Z"/><path class="cls-7" d="M235.59,73h.65V71.1l-.59.42-.24-.36,1-.77h.36V73h.65v.48h-1.84V73Z"/><path class="cls-7" d="M238.15,73.37l-.24-.42,1.61-1-1.61-1,.24-.41,2,1.25v.24Z"/><rect class="cls-8" x="258.74" y="46.87" width="5.54" height="65.41"/><path class="cls-9" d="M263.58,104l-.83-7.62s8.4-3.1,6-7.68c-1.07-2.09-4.95-.3-5.48,1.19l-1.08-8.64L247.32,83c-1.9,5.42-.41,15-.41,15,1.48.77,8.57.24,8.57.24l-.18,5.78"/><path class="cls-4" d="M255.54,99.93l4-2.74-4,.9Z"/><path class="cls-4" d="M251.91,92.73h-2l1.67-4Z"/><path class="cls-4" d="M253.46,89.81a1,1,0,1,1,.77,1.13,1,1,0,0,1-.77-1.13"/><path class="cls-4" d="M248.28,89.81a1,1,0,0,1,1.13-.78,1,1,0,0,1-.36,1.91,1,1,0,0,1-.77-1.13"/><path class="cls-4" d="M251.61,94.87a2.21,2.21,0,0,0,2-1Z"/><path class="cls-10" d="M251.61,94.87a2.21,2.21,0,0,0,2-1"/><path class="cls-9" d="M238.33,235.45H258l-.84-12.63-5.66,2.86.06,4.41S241.72,231.64,238.33,235.45Zm30.2,0H282L280.62,230l-.89-.89-5.42-3.81.06,4.94A7.72,7.72,0,0,0,268.53,235.45Z"/><path class="cls-6" d="M274.37,230.27l-.6-4.94,5.66-1.73,1.19,6.37Zm-22.82-.18-.06-4.41,5.66-1.72.48,5.83Z"/><path class="cls-4" d="M263.23,139.67h7l11.2,83.57h1l.53,5.12H268l-.53-5.12h.89L261.86,192,261,223.36h.84v4.94h-15v-4.94h.77l-1.43-83.69h17Z"/><path class="cls-9" d="M261.5,206.5l-5.66-52.18,6.26,40.45Z"/><path class="cls-9" d="M220.58,110.36a13.05,13.05,0,0,1-2-1.19c-1.73-1.37-2.32-2.56-3.57-3.82-1.61-1.6-3.58-2.85-4.23-3.63a.55.55,0,0,1,.06-.77l.12-.12a.53.53,0,0,1,.71,0l4.41,3.1.12-.24-5.13-4.83a.57.57,0,0,1,.06-.77l.24-.24a.49.49,0,0,1,.72.06l5.42,4.76.18-.17c.06-.06-4.23-4.77-5.42-6.26a.56.56,0,0,1,.12-.77l.35-.24a.55.55,0,0,1,.72.06l5.84,6.13.11-.18c.06,0-2.91-4.22-3.87-5.59a.53.53,0,0,1,.18-.78l.24-.12a.56.56,0,0,1,.71.18l5,6.43a3.92,3.92,0,0,0,.71.54c.54-.71.3-2.62.72-3.57.53-1.14,2.8-2.68,1.84-.36s0,3.87.12,5.18a21.34,21.34,0,0,1,.18,2.56l-.12,1.73Zm37-2.56c-5.6.35-4-3.34-4-3.34a19.16,19.16,0,0,1,5.54-1H265S263.17,107.5,257.57,107.8Zm14.18,42-4.47-3.63L278.12,131l-3.93-8.46,9.59-4.29s5.48,8.28,5.36,12.87C289,136.51,271.75,149.79,271.75,149.79Z"/><path class="cls-6" d="M245.12,139.55c-1.49.06-3.16-.66-2.8-2.56l2.14-11.08c-1.84,1.84-7,6.37-12.15,4.94-6.37-1.85-15.19-18.29-15.19-18.29l9.95-6.73,7.68,10.07L246,108c1.49-1.79,3.52-2.27,7.57-3.46,0,0,.06-.06-.06.36a1.06,1.06,0,0,1-.06.36c-.06.17-.06.11-.06.47s0,.24.18.66a2.06,2.06,0,0,0,.71.83,4.86,4.86,0,0,0,1.79.66,13.49,13.49,0,0,0,3.1-.18,8.33,8.33,0,0,0,4-1.91,7.73,7.73,0,0,0,1.37-1.55c.24-.41-.18-.65.47-.59a29.21,29.21,0,0,1,6.85,1.43c6.86,3.21,12.75,12.74,12.75,12.74s4.71,7.75,4.41,13.17c-.48,8.52-15.19,19.36-15.19,19.36l-7.92-7.21,2.68-3.57Z"/><path class="cls-11" d="M242.26,127.87l3.63-7.33-1.37,5.37Z"/><path class="cls-12" d="M268.23,117.75l7.57,11.55-6.26,8.94"/><path class="cls-4" d="M260.67,89.87l2.14.53a6.83,6.83,0,0,1,3.75-2.62c.6-2.74,1.37-10-7.32-11.08C248.93,75.33,247.32,83,247.32,83l13.29-.18v7.09Z"/><path class="cls-4" d="M50.3,122.38c.19,7.13-5.15,13.05-12,13.24S25.86,130.15,25.66,123s4.59-12.61,11.4-12.8,13,5,13.24,12.16"/><path class="cls-4" d="M29,120.21a1.31,1.31,0,0,0,.25-2.54,10.2,10.2,0,0,0-4.39-.64c-3.5.26-8.72,3.37-9.17,9.1-.51,6.43,4.39,8.92.83,14.65l11.77,2.86s1.79-3.82-1.2-8.91c-2.74-4.65-6.94-13.37,1.91-14.52"/><path class="cls-13" d="M39.54,135.88a9.85,9.85,0,0,1-3.63-.45l3.51,2.1Z"/><path class="cls-6" d="M45.15,134.92c-1.28.89-3.63,1.08-5.61,1l-.31,5.66-6.63-2.54s.45-6.3.7-8.72c-1.33-1.15-3.56-1.66-3.62-3.7a1.87,1.87,0,0,1,1.84-2c2-.06,1.78,2.36,1.78,2.36,2.3.82,4.46-6.94,5.8-8.73.7-1,6.43,1,6.43,1l3.31,3.5c.06.58.06,9.43-3.69,12.1"/><path class="cls-4" d="M44.76,126.83l1.53,3.51H44.64Z"/><path class="cls-4" d="M43.24,127c0,.7-.45,1.27-.9,1.27s-.82-.57-.82-1.27.44-1.28.89-1.28.89.58.83,1.28"/><path class="cls-4" d="M47.69,126.77c0,.7-.44,1.27-.89,1.27s-.83-.57-.83-1.27.45-1.27.89-1.27.83.57.83,1.27"/><path class="cls-14" d="M44.25,132a2.19,2.19,0,0,1-2.22-.83"/><path class="cls-11" d="M39.54,135.88a9.85,9.85,0,0,1-3.63-.45l3.51,2.1Z"/><path class="cls-4" d="M33.3,127.09s8.73.51,13-9.93l-10.06-1.47"/><path class="cls-4" d="M44.76,115.82s.19,7.2,4.33,10.63l.32-4.58"/><path class="cls-15" d="M188.77,156.76s3.95,2.61,4.39,7.13"/><path class="cls-9" d="M189,175.73h-12a4.7,4.7,0,0,1-4.71-4.71v-3.19a4.7,4.7,0,0,1,4.71-4.71h30.17a4.71,4.71,0,0,1,4.72,4.71V171a4.71,4.71,0,0,1-4.72,4.71H195.9v9.48H189Zm1.78-19.42a2.36,2.36,0,1,1-2.36-2.35A2.3,2.3,0,0,1,190.81,156.31Z"/><path class="cls-6" d="M189,185.21h6.87v-9.48H189Z"/><path class="cls-9" d="M189,182.16l6.87-2.29v-4.2H189Z"/><path class="cls-4" d="M177.06,175.73h0a4.7,4.7,0,0,1-4.71-4.71v-3.19a4.71,4.71,0,0,1,9.42,0V171a4.7,4.7,0,0,1-4.71,4.71"/><path class="cls-4" d="M184.44,169.43a3.63,3.63,0,1,0,3.63-3.63,3.67,3.67,0,0,0-3.63,3.63"/><path class="cls-6" d="M186.86,168.92a1.66,1.66,0,1,0,1.66-1.66,1.69,1.69,0,0,0-1.66,1.66"/><path class="cls-4" d="M202.14,169.43a3.63,3.63,0,1,0,3.63-3.63,3.62,3.62,0,0,0-3.63,3.63"/><path class="cls-6" d="M204.56,168.92a1.66,1.66,0,1,0,1.66-1.66,1.68,1.68,0,0,0-1.66,1.66"/><path class="cls-4" d="M196.09,166.94l3.25,2.49-3.25,2.48"/><path class="cls-4" d="M105.05,201.58c-2.22,0-4,2.61-4,5.79s1.79,5.79,4,5.79,4-2.61,4-5.79-1.78-5.79-4-5.79"/><path class="cls-16" d="M105.05,207.69v-64"/><path class="cls-4" d="M76.79,175.22h31.57V142.37H76.79Z"/><path class="cls-17" d="M76.6,207.69v-64L65,147.21"/><path class="cls-15" d="M91.24,189.61l27.57,35.46"/><path class="cls-15" d="M118.87,189.61,91.3,225.07"/><path class="cls-15" d="M88.5,207.37h33.11"/><path class="cls-15" d="M105.05,181.52v51.63"/><path class="cls-9" d="M105.05,179.23c-10.82,0-19.6,12.73-19.6,28.46s8.78,28.46,19.6,28.46,19.61-12.74,19.61-28.46-8.72-28.46-19.61-28.46m0,4.46c3.76,0,7.33,2.29,10.19,6.43a26.46,26.46,0,0,1,3.57,7.76,35.8,35.8,0,0,1,1.33,9.81,35.05,35.05,0,0,1-1.33,9.8,26.4,26.4,0,0,1-3.57,7.77c-2.86,4.14-6.49,6.43-10.19,6.43s-7.32-2.29-10.18-6.43a26.4,26.4,0,0,1-3.57-7.77,35.78,35.78,0,0,1-1.33-9.8,35.18,35.18,0,0,1,1.33-9.81,26.46,26.46,0,0,1,3.57-7.76c2.86-4.2,6.49-6.43,10.18-6.43"/><path class="cls-18" d="M76.6,181.52v51.63"/><path class="cls-16" d="M130.39,221.12V174"/><path class="cls-4" d="M131.16,219.34c-3.19,0-5.8,3.75-5.8,8.4s2.61,8.41,5.8,8.41,5.79-3.76,5.79-8.41-2.61-8.4-5.79-8.4m0,3.63c.63,0,2.1,1.65,2.1,4.71s-1.53,4.71-2.1,4.71-2.1-1.66-2.1-4.71,1.46-4.71,2.1-4.71"/><path class="cls-4" d="M84.3,191.9h46.09v-7.19H84.3Z"/><path class="cls-9" d="M77.3,191.9h25v-7.19h-25Z"/><path class="cls-9" d="M139.94,220.68l.07-4.21-5-2.73-.77,12h17.51C148.73,222.2,139.94,220.68,139.94,220.68Zm-21.64-.13.06-5-5.48-.25-.5,5-1.28,5.48h12.67C122.18,221.06,118.3,220.55,118.3,220.55Z"/><path class="cls-6" d="M112.38,220.23l.57-6.43,5.35,1.72-.07,5Zm22.15.19.38-5.54,5,1.59-.06,4.21Z"/><path class="cls-4" d="M109.51,229.65h43.55v-3.94H109.51Z"/><path class="cls-6" d="M107.79,229.65h14.58v-3.94H107.79Z"/><path class="cls-9" d="M76.6,179.23C65.77,179.23,57,192,57,207.69s8.78,28.46,19.61,28.46,19.6-12.74,19.6-28.46-8.78-28.46-19.6-28.46m0,4.46c3.75,0,7.32,2.29,10.18,6.43a26.46,26.46,0,0,1,3.57,7.76,35.8,35.8,0,0,1,1.33,9.81,35.05,35.05,0,0,1-1.33,9.8,26.4,26.4,0,0,1-3.57,7.77c-2.86,4.14-6.49,6.43-10.18,6.43s-7.33-2.29-10.19-6.43a26.4,26.4,0,0,1-3.57-7.77,35.78,35.78,0,0,1-1.33-9.8,35.18,35.18,0,0,1,1.33-9.81,26.46,26.46,0,0,1,3.57-7.76c2.86-4.2,6.43-6.43,10.19-6.43"/><path class="cls-16" d="M100.6,221.12l-.07-35.91"/><path class="cls-6" d="M102.63,219.34c-3.18,0-5.79,3.75-5.79,8.4s2.61,8.41,5.79,8.41,5.8-3.76,5.8-8.41-2.61-8.4-5.8-8.4m0,3.63c.64,0,2.11,1.65,2.11,4.71s-1.53,4.71-2.11,4.71-2.1-1.66-2.1-4.71S102,223,102.63,223"/><path class="cls-4" d="M76.4,201.39c-2.22,0-4,2.61-4,5.79s1.79,5.79,4,5.79,4-2.61,4-5.79-1.79-5.79-4-5.79"/><path class="cls-18" d="M64.5,191.9l23.81,30.56"/><path class="cls-18" d="M88.12,192.47,64.05,223.35"/><path class="cls-18" d="M60.62,207.37H91.68"/><path class="cls-4" d="M106.14,172.48H92.89v4a8.9,8.9,0,0,0,9,8.85H113.2l-1.53,33h9.24l3.43-33H134l-.45,33h9.36l4.39-33.87a10.59,10.59,0,0,0-10.57-11.9H106.14Z"/><path class="cls-4" d="M92.89,172.48h24.9a7,7,0,0,1,7,7.64l-4,38.2h-9.23l1.53-33H101.81a8.9,8.9,0,0,1-9-8.85v-4Z"/><path class="cls-6" d="M134.53,151.85c-2,4.08-9.29,17.45-14.45,15.28-3.89-1.59-8.47-14.83-8.47-14.83l7.51-4.52,3.38,9.1,6.87-7.51c-.25-1.46-.44-3.44.07-4.14a54.12,54.12,0,0,1,4.84-4.77l.7,6.11.12-.51V146h0l.32-1.21c-.13-.07-.19-.13-.13-.26a1.19,1.19,0,0,1,.26-.31l1-4.08s.32.13.83.38c.76-.19,3.62,1.79,3.62,1.79h0c.58.38-.76,6.55-1.91,7.7-.76.76-3.24,1.46-4.58,1.84Zm-46,27.57.45.89a8.7,8.7,0,0,1,.82,2c.45,1.27.26,2,1.21,4,1.09,2.23-.82,1.33-1.52.32-.51-.77-.45-1.79-1.15-2.23-.25.38-.76.89-1.08,4.14a17.69,17.69,0,0,0,.19,2.48c0,.57.06,1.72-.57,1.91-.13.06-.39-.13-.39-.13s.07.76-.57.89c-.25.07-.76-1.53-.76-1.53s-.07.83-.58.9c-.12,0-1.78-4.59-1.78-4.59l.13,1,.19,1.08s0,.58-.45.7c-.19.07-.51-.89-.82-2a9.51,9.51,0,0,1-.32-4.33,12.81,12.81,0,0,1,.83-4,4.14,4.14,0,0,1,.31-.77c-.38-3.31-1.46-13.05-1.33-16,.19-3.63,3.94-11.65,3.94-11.65L93,156.76l-4.26,7.83-.26,14.83Zm18.53-36a8.12,8.12,0,0,1-6.81-3.82,26.38,26.38,0,0,1,6.93.26,27.85,27.85,0,0,1,3.63.76C111,141.41,111.36,143.71,107,143.45Z"/><path class="cls-9" d="M92.77,172.74H117.6l.89-15.41,4.33-2.55-3.06-7.06h0a9,9,0,0,0-.45-.83,13.53,13.53,0,0,0-8.59-6.3h-.06a.64.64,0,0,1,.12.44,2.42,2.42,0,0,1-.25,1.34,2.46,2.46,0,0,1-1.21.83,3.05,3.05,0,0,1-.64.12l-1.08.07a12.22,12.22,0,0,1-2.48-.32,5.15,5.15,0,0,1-.83-.26c-.06,0-.13-.06-.19-.06a10.64,10.64,0,0,1-1.27-.57,4.52,4.52,0,0,1-1.34-1l-.13-.13a5.09,5.09,0,0,1-.83-.95,1.66,1.66,0,0,0-.19-.26.06.06,0,0,0-.06-.06.24.24,0,0,1-.06-.19v-.07h-.07a17.87,17.87,0,0,0-5.66,1.6c-6.31,3-10.06,10.44-10.06,10.44l7.83,5.92Z"/><path class="cls-19" d="M92.38,157.52l2,1.34,4.77-5.6"/><path class="cls-9" d="M137.84,147.65l-.32,1.72h-5.6l2.67-13.56h5.61c-.13.77-.51,2.48-1,5.29l-1.08-.51-.32-.13h-.26l-.13.06v.32l1.21,1.72-.89.38-1.4.77-.38.25-.13.13-.12.13-.07.12-.06.07v.25l.06.06.45.2,1.08-.32h1l-1.4.32-.89.57-.32.32-.19.19v.19l.32.13,2-.26-.64.38-.44.26-.38.19-.32.38v.19l.12.13.26.13h1.27Z"/><path class="cls-4" d="M131.86,149.37h-1l2.68-13.56h.95Z"/><path class="cls-4" d="M135.49,137.34c-.07.38-.32.7-.51.64s-.32-.39-.26-.77.32-.7.51-.63.32.38.26.76"/><path class="cls-9" d="M199.72,193.49h-2.16v-7.64a2.06,2.06,0,0,0-2-2h-6.68a2.05,2.05,0,0,0-2,2v7.45h-1.91a1.21,1.21,0,0,0-1.21,1.21v24.83a1.21,1.21,0,0,0,1.21,1.21h3.88a1.21,1.21,0,0,0,1.21-1.21,1.25,1.25,0,0,0-1.21-1.21h-2.61v-5.41a3.4,3.4,0,0,1,2.61-1.79c2.36,0,4.27,3.76,4.27,8.41s-1.91,8.4-4.27,8.4c-2.16,0-4-3.12-4.2-7.19a1.17,1.17,0,0,1-.83-1.15V205.46c-2.23,3.12-3.63,8.15-3.63,13.94,0,9.42,3.89,17.13,8.73,17.13h7.06c4.84,0,8.72-7.64,8.72-17.13,0-5.73-1.4-10.76-3.62-13.88V194.76A1.29,1.29,0,0,0,199.72,193.49Zm-2.16,3.88v-1.46h.95V203a5.08,5.08,0,0,0-2.67-.83h-7.07a5,5,0,0,0-2.61.77v-7.32h.7v1.65a2.05,2.05,0,0,0,2,2h6.68A1.91,1.91,0,0,0,197.56,197.37Z"/><path class="cls-4" d="M184.51,220.42a.82.82,0,0,0,.38.06h3.88a1.21,1.21,0,0,0,1.21-1.21,1.25,1.25,0,0,0-1.21-1.2h-2.61v-5.35a3.25,3.25,0,0,1,2.68-1.79c2.35,0,4.26,3.76,4.26,8.41s-1.91,8.4-4.26,8.4-4-3.24-4.33-7.32Z"/><path class="cls-4" d="M186.73,191.64h10.76V188H186.73Z"/><path class="cls-4" d="M198.58,203c-.07,0-.07-.06-.13-.06v-7h-1v-2.42h2.23a1.21,1.21,0,0,1,1.21,1.21v10.57c-.06-.06-.13-.19-.19-.25s-.13-.13-.13-.19l-.06-.07c2.48,3.06,4.07,8.41,4.07,14.52,0,9.42-3.88,17.12-8.72,17.12h-6.75c4.65-.38,8.41-7.89,8.41-17.12,0-9.42-3.89-17.06-8.72-17.13h7.06a4.61,4.61,0,0,1,2.68.83Zm1.46,1.15.19.19c-.06,0-.13-.07-.19-.19ZM186.1,218.07h2.61a1.21,1.21,0,0,1,1.21,1.2,1.26,1.26,0,0,1-1.21,1.21h-3.89a1.2,1.2,0,0,1-1.2-1.21V194.45a1.21,1.21,0,0,1,1.2-1.21h3.89a1.21,1.21,0,0,1,0,2.42H186.1Z"/><path class="cls-6" d="M65.07,189.54v.32a4.92,4.92,0,0,1-4.84,5H22.35c-5.85,0-10.31-5.6-9.55-11.9l4.27-35a5.54,5.54,0,0,1,5.35-5h11.2A5.59,5.59,0,0,1,39,148l4.27,35a3.25,3.25,0,0,1,.06.76h0s.76,5.73,8.15,5.73H65.07Z"/><path class="cls-9" d="M24.77,234.36a3.25,3.25,0,1,1-3.24-3.24,3.18,3.18,0,0,1,3.24,3.24"/><path id="Fill-6" class="cls-6" d="M54.25,235H22.35a2.23,2.23,0,0,1,0-4.46h31.9a2.23,2.23,0,0,1,0,4.46"/><polygon class="cls-9" points="36.68 233.92 39.92 233.92 39.92 194.83 36.68 194.83 36.68 233.92"/><polygon class="cls-9" points="49.54 194.83 38.27 199.92 27.07 194.83 49.54 194.83"/><path class="cls-9" d="M38.52,235H34.39a2.23,2.23,0,1,1,0-4.46h4.13a2.26,2.26,0,0,1,2.23,2.23A2.21,2.21,0,0,1,38.52,235"/><path class="cls-9" d="M35.85,234.36a3.25,3.25,0,1,1-3.25-3.24,3.22,3.22,0,0,1,3.25,3.24"/><path class="cls-9" d="M58.52,234.36a3.25,3.25,0,1,1-3.25-3.24,3.22,3.22,0,0,1,3.25,3.24"/><path class="cls-20" d="M28.72,171.78h-1.4v-.06a10.93,10.93,0,0,1,1.4.06"/><path class="cls-20" d="M33.5,171.85v.06s-2,0-4.84-.13Z"/><path id="Stroke-4" class="cls-21" d="M55,189a4.49,4.49,0,0,0,2.55,2.87c.7.25.51,3,2.23,2.67"/><polyline id="Stroke-22" class="cls-22" points="27.07 154.47 22.86 161.47 33.37 165.67"/><path class="cls-4" d="M100.85,107.8A3.24,3.24,0,1,1,97,105.25a3.19,3.19,0,0,1,3.82,2.55"/><path class="cls-6" d="M108.56,140l-.13-5.34s6.49.5,7.83-.2c0,0,1.72-8.72-.32-13.56l-.06-.19-13.63-1.59-.83,7.7c-.44-1.33-4.13-2.8-5.15-.82-2.17,4.2,5.54,7.06,5.54,7.06l-.77,7"/><path class="cls-11" d="M108.36,134.73l-4.39-1,4.33,2.93Z"/><path class="cls-9" d="M112,126l1.53,3.69h-1.78Z"/><path class="cls-4" d="M110.27,127.09a.93.93,0,1,1-1.08-.76,1,1,0,0,1,1.08.76"/><path class="cls-4" d="M115,127.09a1,1,0,0,1-.77,1.08,1,1,0,0,1-1.08-.76.92.92,0,0,1,.76-1.08,1,1,0,0,1,1.09.76"/><path class="cls-4" d="M110.08,130.78a2.23,2.23,0,0,0,1.91,1Z"/><path class="cls-23" d="M110.08,130.78a2.23,2.23,0,0,0,1.91,1"/><path class="cls-9" d="M100,125.88l.13-3.06,6.43-1.14a7.39,7.39,0,0,1-4.59,5.92A5.86,5.86,0,0,0,100,125.88Z"/><path class="cls-9" d="M95.25,121.81s-2.17-7.84,4.07-12.16c7.77-5.35,16.81,8.72,16.81,8.72"/><path class="cls-4" d="M93.66,122.7l.25,2a1.49,1.49,0,0,0,1.79,1.21L117,122.38a1.52,1.52,0,0,0,1.21-1.91l-.89-2.74a1.61,1.61,0,0,0-1.79-1.08L94.8,120.91a1.62,1.62,0,0,0-1.14,1.79"/><path class="cls-4" d="M94.93,118.37l3.63-5,5.48,2.8,3.18-4.71,5.66,2.61"/><path class="cls-4" d="M62.59,225.58l-.45,4.07s8.66,2.29,11.91,5.6H57.94l.58-11.58ZM81.12,206.8,83,210.43s8.47-2.87,13.05-1.85l-13.3,8.85-6-9.93Z"/><path class="cls-6" d="M58.32,224.75l4.27,1.72-.06,3.37-4.4-.19Zm18.79-16.49,4.52-.95,1.84,2.86-3.75,2.29Z"/><path class="cls-4" d="M57.43,167.83l-29.86,8.85-.63,5.67c-.38,5.54,5,10.38,10.57,10.38h0l19.54-.13-.44,34.89H66.86l2.22-24,6.5,9.48,8.72-5.79L68.45,174.71C64.88,168.28,62.91,166.62,57.43,167.83Z"/><path class="cls-9" d="M59.92,178.72h0L37.51,192.66l19.54-.12-.44,34.88H66.86l3.5-38.13c.89-6.94-3.44-10.57-10.44-10.57"/><polygon class="cls-7" points="27.32 171.65 27.51 176.68 42.85 172.67 40.69 169.49 27.32 171.65"/><path class="cls-20" d="M29.17,173.12H27.7v-.07a9.93,9.93,0,0,1,1.47.07"/><path class="cls-4" d="M59.34,189.16l-4.9.64-7.89-12.29-.32-4.07-12-.19-5.09-.07h0c-.45,0-1-.06-1.47-.06-6.43-.45-15.4-1.72-16-5.16C10.64,161.66,19,149.5,20,148a.19.19,0,0,0,.06-.12,15.44,15.44,0,0,1,4.14-4.4,13.08,13.08,0,0,1,7.26-2l.63-4.46,9.36,1.28-.51,3.69c2.74.26,4.65.83,6.37,2.42,5.6,5.16,6,24.51,6,24.51Z"/><path class="cls-24" d="M46.1,173.31c.7-8.72,5.48-10.57,2-20.37"/><path class="cls-6" d="M54.25,184.13l-17.89-2a1,1,0,0,1-.83-1.21l7.07-25a1,1,0,0,1,1-.7l17.89,2a1,1,0,0,1,.83,1.21l-7.07,25a1,1,0,0,1-1,.7"/><path class="cls-9" d="M37.38,182.16l17.89,2a1,1,0,0,0,1-.7l7.06-24.9a1,1,0,0,0-.82-1.21l-17.89-2a1,1,0,0,0-1,.7L40,168.92a18.36,18.36,0,0,0,2.86,1,22.57,22.57,0,0,0,2.42.19h.13c.57.07,1.59.19,1.66.83a.45.45,0,0,1-.2.32s.71.06.77.7c0,.25-1.59.51-1.59.51s.76.19.76.7c0,.13-4.71,1-4.71,1l1,.06,1.08-.06s.57.12.57.57c0,.19-.95.38-2.1.51a10,10,0,0,1-4.26-.32h-.13l-1.72,6.18A.93.93,0,0,0,37.38,182.16Z"/><path class="cls-6" d="M59.28,189.16A35.59,35.59,0,0,1,62,192.54a25.59,25.59,0,0,1,1,4.71c0,.63-2,3.63-2,3.63-1.21-.32-.44-1.85-.44-1.85s-1.09.95-1.6.89c-4.33-.13-4.07-2.35-4-2.61.26-.64,1.4.06,1.4.06s-2.22-4.52-1.72-7.7ZM46,172.35s.76.2.76.7c0,.13-4.71,1-4.71,1l1,.07,1.08-.07s.57.13.57.58c0,.19-.95.38-2.1.51a10,10,0,0,1-4.26-.32c-.13,0-.19-.07-.32-.07a11.06,11.06,0,0,1-3.5-1.27,17.2,17.2,0,0,1-2.23-1.59l1.21-4.39,1.65-.58a9.47,9.47,0,0,1,2-.51c.83-.12,1.59-.06,2.42-.19L39.23,168c-.07.07-.13.19-.2.19s.07.07.13.13c.32.32,1,.83,3.76,1.53a22.39,22.39,0,0,0,2.42.19c.57.06,1.72.19,1.78.83a.45.45,0,0,1-.19.32.83.83,0,0,1,.76.7C47.69,172.1,46,172.35,46,172.35Z"/><path class="cls-25" d="M57.18,191.39a4.73,4.73,0,0,0,2.67,3c.7.26.58,3.19,2.36,2.87"/><path class="cls-6" d="M45.46,157.65c-.12.44-.44.76-.7.7s-.31-.51-.19-1,.45-.76.7-.7.32.51.19,1"/><path class="cls-26" d="M27.45,154.66l-4.52,7.44,11.2,4.46"/></g></svg>